<svg xmlns="http://www.w3.org/2000/svg" version="1.1" xmlns:xlink="http://www.w3.org/1999/xlink" xmlns:svgjs="http://svgjs.dev/svgjs" width="1000" height="1000" viewBox="0 0 1000 1000"><rect width="1000" height="1000" fill="#282634"></rect><g transform="matrix(0.7,0,0,0.7,149.57575757575756,282.1265587044535)"><svg viewBox="0 0 396 247" data-background-color="#282634" preserveAspectRatio="xMidYMid meet" height="623" width="1000" xmlns="http://www.w3.org/2000/svg" xmlns:xlink="http://www.w3.org/1999/xlink"><g id="tight-bounds" transform="matrix(1,0,0,1,0.2400000000000091,-0.09999999999999432)"><svg viewBox="0 0 395.52 247.2" height="247.2" width="395.52"><g><svg></svg></g><g><svg viewBox="0 0 395.52 247.2" height="247.2" width="395.52"><g transform="matrix(1,0,0,1,158.28391173001705,37.08)"><svg viewBox="0 0 78.95217653996589 173.04" height="173.04" width="78.95217653996589"><g><svg viewBox="0 0 163.03612499999997 357.3273379704623" height="173.04" width="78.95217653996589"><g><rect width="163.03612499999997" height="15.60492577728" x="0" y="127.83182115318233" fill="#dcdcdc" opacity="1" stroke-width="0" stroke="transparent" fill-opacity="1" class="rect-bu-0" data-fill-palette-color="secondary" rx="1%" id="bu-0" data-palette-color="#dcdcdc"></rect></g><g transform="matrix(1,0,0,1,0.40556249999998784,184.28733797046232)"><svg viewBox="0 0 162.225 173.04" height="173.04" width="162.225"><g><svg viewBox="0 0 162.225 173.04" height="173.04" width="162.225"><g><svg viewBox="0 0 162.225 173.04" height="173.04" width="162.225"><g transform="matrix(1,0,0,1,0,0)"><svg width="162.225" viewBox="0.17 -35.55 33.33 35.55" height="173.04" data-palette-color="#ff4057"><path d="M25.71 0L23.24-7.32 10.4-7.32 7.96 0 0.17 0 13.4-35.55 20.19-35.55 33.5 0 25.71 0ZM16.8-26.56L12.38-13.26 21.26-13.26 16.8-26.56Z" opacity="1" transform="matrix(1,0,0,1,0,0)" fill="#ff4057" class="undefined-text-0" data-fill-palette-color="primary" id="text-0"></path></svg></g></svg></g></svg></g></svg></g><g transform="matrix(1,0,0,1,6.326774999999984,0)"><svg viewBox="0 0 150.382575 86.98123011318233" height="86.98123011318233" width="150.382575"><g><svg xmlns="http://www.w3.org/2000/svg" xmlns:xlink="http://www.w3.org/1999/xlink" version="1.1" x="8" y="0" viewBox="3.0619999999999994 7.6259999999999994 25.875000424475566 16.747999999999998" enable-background="new 0 0 32 32" xml:space="preserve" height="86.98123011318233" width="134.382575" class="icon-icon-0" data-fill-palette-color="accent" id="icon-0"><path d="M24.846 14.466c0.021-0.194 0.029-0.392 0.029-0.59 0-3.453-2.798-6.25-6.25-6.25-2.679 0-4.958 1.688-5.847 4.059-0.589-0.646-1.429-1.059-2.372-1.059-1.778 0-3.219 1.44-3.219 3.219 0 0.21 0.022 0.414 0.062 0.613-2.372 0.391-4.187 2.436-4.187 4.916 0 2.764 2.238 5 5 5h15.875c2.762 0 5-2.236 5-5C28.938 16.925 27.172 14.896 24.846 14.466z" fill="#dcdcdc" data-fill-palette-color="accent"></path></svg></g></svg></g><g></g></svg></g></svg></g><g></g></svg></g><defs></defs></svg><rect width="395.52" height="247.2" fill="none" stroke="none" visibility="hidden"></rect></g></svg></g></svg>